<svg width="72" height="72" viewBox="0 0 72 72" fill="none" xmlns="http://www.w3.org/2000/svg">
<path d="M38.2806 16.5201C42.8425 16.5201 46.5406 12.8219 46.5406 8.26004C46.5406 3.69814 42.8425 0 38.2806 0C33.7187 0 30.0206 3.69814 30.0206 8.26004C30.0206 12.8219 33.7187 16.5201 38.2806 16.5201Z" fill="#18A0FB"/>
<path d="M56.1131 41.034C56.1131 40.9881 56.1131 40.9606 56.1131 40.9606C56.1039 40.8413 56.0855 40.722 56.0672 40.6028C55.8745 39.0149 55.5533 37.3722 55.5533 37.3722L53.8095 26.2028L53.5983 24.8353C53.3873 23.5504 52.8641 22.3756 51.9188 21.2743C49.7253 18.732 43.8147 18.475 43.567 18.4659C43.5577 18.4659 43.5577 18.4659 43.5577 18.4659C43.5577 18.4659 40.4925 29.1579 40.4558 29.2772V29.2864V29.2772C40.4191 28.4237 39.4371 20.7694 39.4371 20.7694C39.4371 20.7694 39.4463 20.7602 39.4554 20.7327L40.832 18.475H35.9311L37.3078 20.7327C37.3169 20.7511 37.3262 20.7694 37.3262 20.7694C37.3262 20.7694 36.3441 28.4145 36.3073 29.2772V29.2864C36.3073 29.2864 36.3073 29.2864 36.3073 29.2772C36.2708 29.1579 33.1686 18.3465 33.1503 18.2914C30.5438 18.2914 27.5243 18.2914 24.927 18.2914C25.4868 17.0891 27.148 11.9587 28.1484 9.25124C29.0019 6.93843 27.1388 4.23098 24.6792 4.27687C22.4673 4.31358 21.3843 5.94723 20.7143 7.61759C19.1082 11.6099 17.6765 15.6757 16.2264 19.7415C16.0612 20.1912 15.9052 20.6501 15.74 21.0998C15.6941 21.3476 15.6757 21.6046 15.6757 21.8616C15.6757 23.3851 16.4558 24.7159 17.6398 25.496C18.3189 25.9457 19.1358 26.2027 20.0077 26.2027H22.9537H28.1759C28.1759 27.0562 28.1759 27.7537 28.1759 28.4512C28.1759 33.9029 28.1759 39.3453 28.1851 44.7969L28.1943 44.7878C28.1943 44.8061 28.1943 44.8245 28.1943 44.852C28.1943 51.7629 28.1667 58.6646 28.1943 65.5755C28.1943 65.8141 28.2126 66.5484 28.2126 66.6769C28.2126 69.6046 30.5805 71.9816 33.499 72C35.6925 71.9816 37.5648 70.6417 38.3633 68.7327C38.4459 68.7327 38.3633 68.7327 38.4459 68.7327C39.2445 70.6324 41.1166 71.9815 43.3101 72C46.2379 71.9816 48.5966 69.6046 48.5966 66.6769C48.5966 66.5484 48.615 65.8141 48.615 65.5755C48.6425 58.6646 48.615 51.7629 48.615 44.852C48.615 44.8336 48.615 44.8153 48.615 44.7878L48.6242 44.7969C49.3402 45.9809 50.6433 46.7794 52.1394 46.7794C54.4062 46.7794 56.251 44.9439 56.251 42.6678C56.251 42.6494 56.251 42.6219 56.251 42.6035C56.2049 42.1721 56.1682 41.6122 56.1131 41.034Z" fill="#18A0FB"/>
<path d="M56.3243 52.3962C56.3243 50.7165 54.9659 49.3491 53.2772 49.3491C51.5977 49.3491 50.2302 50.7075 50.2302 52.3962V64.9973C50.2302 65.0157 50.2302 65.0339 50.2302 65.0616C50.2302 66.7411 51.5885 68.1085 53.2772 68.1085C54.9568 68.1085 56.3243 66.7502 56.3243 65.0616C56.3243 65.0432 56.3243 65.0249 56.3243 64.9973V52.3962Z" fill="#18A0FB"/>
</svg>
