<svg width="72" height="72" viewBox="0 0 72 72" fill="none" xmlns="http://www.w3.org/2000/svg">
<path d="M33.75 63H38.25V58.5H33.75V63ZM36 9C34.758 9 33.75 10.008 33.75 11.25V33.804H15.75C14.508 33.804 13.5 34.812 13.5 36.054C13.5 37.296 14.508 38.304 15.75 38.304H36C37.242 38.304 38.25 37.296 38.25 36.054V11.25C38.25 10.008 37.242 9 36 9ZM15.1493 51.372L18.2633 54.4927L21.3773 51.372L18.2633 48.2513L15.1493 51.372ZM21.8092 18.7267L18.6254 15.5453L15.4439 18.7267L18.6254 21.9082L21.8092 18.7267ZM49.6709 18.6142L52.7851 21.7349L55.8991 18.6142L52.7851 15.4935L49.6709 18.6142ZM49.0118 51.2505L52.1933 54.432L55.3748 51.2505L52.1933 48.0691L49.0118 51.2505ZM58.5 33.75V38.25H63V33.75H58.5ZM36 0C16.1167 0 0 16.1191 0 36C0 55.8833 16.1167 72 36 72C55.8833 72 72 55.8809 72 36C72 16.1191 55.8833 0 36 0ZM36 67.5C18.6029 67.5 4.5 53.3971 4.5 36C4.5 18.6029 18.6029 4.5 36 4.5C53.3971 4.5 67.5 18.6029 67.5 36C67.5 53.3971 53.3971 67.5 36 67.5Z" fill="#18A0FB"/>
</svg>
