<svg width="72" height="72" viewBox="0 0 72 72" fill="none" xmlns="http://www.w3.org/2000/svg">
<path d="M1.16663 25.5915C2.37038 23.2436 3.84975 21.0476 5.57437 19.0496L1.16663 25.5915Z" fill="#18A0FB"/>
<path d="M36 0C16.1179 0 0 16.1179 0 36C0 55.8821 16.1179 72 36 72C55.8821 72 72 55.8821 72 36C72 16.1179 55.8821 0 36 0Z" fill="#18A0FB"/>
<path d="M29.8496 6.28987C29.4559 5.859 28.9361 5.562 28.3646 5.4405C27.3881 5.17387 26.3543 5.2155 26.3745 5.60812C25.4104 5.60812 25.0076 5.985 24.9885 6.489C24.9503 7.51387 26.5241 9.0765 28.3883 9.13725C31.1693 9.225 30.3458 6.95812 29.8496 6.28987Z" fill="white"/>
<path d="M54.4658 10.503L54.3825 10.4434C53.9584 10.1374 53.5275 9.84262 53.0876 9.558L52.8863 9.42862C52.4756 9.1665 52.0594 8.9145 51.6364 8.6715L51.4001 8.53537C50.967 8.29125 50.5271 8.05725 50.0816 7.83337C50.0186 7.80187 49.9568 7.76812 49.8938 7.73662C48.8565 7.22362 47.7923 6.768 46.7044 6.37312L46.6358 6.3495C46.1374 6.17175 45.6334 6.00525 45.1238 5.85C44.9741 5.805 44.8223 5.7645 44.6738 5.72175C44.2868 5.60925 43.8975 5.50463 43.5038 5.40788C43.3125 5.36063 43.1201 5.31788 42.9278 5.27513C42.5666 5.19413 42.2044 5.11875 41.8399 5.05012C41.6306 5.01075 41.4214 4.9725 41.211 4.93762C40.8499 4.87687 40.4865 4.82512 40.1209 4.77675C39.9116 4.74975 39.7024 4.71938 39.4909 4.69688C39.0983 4.653 38.7034 4.6215 38.3063 4.59225C38.1229 4.57875 37.9406 4.56075 37.7561 4.55063C37.1723 4.51913 36.5884 4.5 36 4.5C35.3396 4.5 34.686 4.527 34.0358 4.5675C33.4733 4.78462 32.472 5.3145 32.9603 6.19875C33.6206 7.3935 35.4116 9.04725 33.6206 9.32287C31.8296 9.5985 30.7924 10.7932 29.1904 10.7932C27.5884 10.7932 23.535 9.1395 23.346 10.3342C23.157 11.529 19.1981 13.6417 18.2554 13.5495C17.3126 13.4572 16.8413 15.2032 14.2965 15.2032C13.5754 15.2167 12.8565 15.3022 12.1523 15.4575C10.5109 17.3599 9.10127 19.4512 7.9549 21.6877C8.39364 21.8216 8.85939 21.8351 9.30489 21.7271C11.7563 21.1759 14.9603 17.8684 17.2226 19.5221C19.485 21.1759 20.8046 21.9105 20.6156 25.0346C20.4266 28.1587 19.8619 32.0164 23.2549 33.6701C26.6479 35.3239 24.5745 36.9776 27.2138 38.0801C29.853 39.1826 33.435 39.7339 34.3778 40.4685C35.3205 41.2031 37.0125 42.8557 37.0125 42.8557C37.0125 42.8557 34.5611 45.612 35.5039 47.0824C36.4466 48.5527 40.9714 49.2874 40.5945 52.9627C40.2176 56.6381 37.4051 62.9122 37.4051 64.1981C37.4051 65.484 37.2645 67.356 37.2645 67.356C37.2645 67.356 41.6003 65.7022 42.543 63.8685C43.4858 62.0347 47.3805 56.8249 48.5123 56.2736C49.644 55.7224 53.037 53.5174 54.1676 51.3124C55.2983 49.1074 59.4461 46.5345 55.2983 45.432C51.1504 44.3295 50.7735 40.8386 47.5684 40.6541C44.3633 40.4696 45.2115 39.8272 43.0436 39.9195C40.8758 40.0117 39.4616 41.022 38.5189 41.2054C37.5761 41.3887 36.351 41.022 36.162 40.1029C35.973 39.1837 35.0314 37.8056 34.371 38.0779C33.7106 38.3501 35.3138 36.4241 34.371 36.2407C33.4283 36.0574 32.499 37.5266 31.5023 37.5266C30.5055 37.5266 30.4121 33.7601 30.4121 33.7601C30.4121 33.7601 36.0675 33.1166 36.351 33.7601C36.6345 34.4036 38.0475 35.8729 38.5189 35.1382C38.9903 34.4036 37.5761 32.4742 37.8596 32.0141C38.1431 31.554 44.4578 27.5141 44.6468 25.8592C44.8358 24.2044 48.2288 24.3889 48.0398 22.3717C47.8508 20.3546 45.9686 20.898 45.6863 19.8C45.4039 18.702 44.1776 17.5027 43.2349 18.6052C43.0414 18.8257 42.7838 18.9832 42.4991 19.0552C42.8985 18.6109 43.1741 18.1856 43.1404 17.964C43.0459 17.3205 45.8741 15.759 46.44 15.0244C47.0059 14.2897 42.858 11.9002 41.256 11.349C40.4449 11.079 39.5955 10.9462 38.7416 10.953C38.5459 10.0215 38.7776 9.05175 39.375 8.3115C40.5 7.39237 41.5384 9.873 42.3866 9.873C43.2349 9.873 46.251 9.96525 46.9114 10.8855C47.5718 11.8057 48.7969 13.0905 48.7969 13.9174C48.7969 14.7442 49.9275 20.25 52.5668 19.7032C55.206 19.1565 55.3005 17.4982 56.5256 17.1304C57.7508 16.7625 58.977 18.1429 61.3328 17.5894C61.1516 17.2125 60.9446 16.848 60.7118 16.5004C58.9129 14.2256 56.8114 12.2085 54.4658 10.503ZM38.9936 13.3639C38.9936 13.3099 38.9813 13.2412 38.9756 13.1839C39.2828 13.3155 39.6056 13.4077 39.9364 13.4561C40.8791 13.5484 41.256 15.7534 39.3739 17.1315C37.9598 18.1654 38.619 19.323 39.3514 20.0149C38.925 20.646 38.4446 21.3311 37.7764 21.2659C36.4703 20.9981 35.2823 20.322 34.3834 19.3365C33.8209 18.5096 35.514 16.2124 36.6458 15.4777C37.7775 14.7431 39.087 14.7375 38.9936 13.3639Z" fill="white"/>
<path d="M44.6715 5.724C44.8223 5.76675 44.9741 5.80725 45.1215 5.85225C44.9741 5.80612 44.8223 5.76675 44.6715 5.724Z" fill="#18A0FB"/>
<path d="M39.4875 4.698C39.699 4.72145 39.9071 4.75049 40.1175 4.7773C39.9083 4.75049 39.7001 4.7248 39.4875 4.698Z" fill="#18A0FB"/>
<path d="M42.9255 5.27626C43.1179 5.32014 43.3103 5.36289 43.5015 5.40901C43.3125 5.36289 43.1179 5.32014 42.9255 5.27626Z" fill="#18A0FB"/>
<path d="M52.8874 9.42975L53.0888 9.55913L52.8874 9.42975Z" fill="#18A0FB"/>
<path d="M54.3825 10.4445L54.4657 10.5037L54.3825 10.4445Z" fill="#18A0FB"/>
<path d="M46.6358 6.35175L46.7053 6.37568L46.6358 6.35175Z" fill="#18A0FB"/>
<path d="M37.7539 4.55138C37.9384 4.56136 38.1207 4.5791 38.3041 4.5924C38.1207 4.5791 37.9384 4.56136 37.7539 4.55138Z" fill="#18A0FB"/>
<path d="M41.2076 4.93875C41.418 4.97337 41.6273 5.01135 41.8365 5.05044C41.6284 5.01135 41.418 4.97337 41.2076 4.93875Z" fill="#18A0FB"/>
<path d="M49.8938 7.73888C49.9568 7.77015 50.0186 7.80254 50.0816 7.83493C50.0186 7.80365 49.9568 7.77015 49.8938 7.73888Z" fill="#18A0FB"/>
<path d="M51.4013 8.5365L51.6375 8.67262L51.4013 8.5365Z" fill="#18A0FB"/>
<path d="M54.4658 10.503C56.8114 12.2085 58.9129 14.2268 60.7118 16.5015C58.914 14.2256 56.8114 12.2074 54.4658 10.503Z" fill="#18A0FB"/>
<path d="M46.7055 6.37538C47.7923 6.77026 48.8565 7.22588 49.8938 7.73888C48.8565 7.22588 47.7923 6.77026 46.7055 6.37538Z" fill="#18A0FB"/>
<path d="M36 4.5C36.5884 4.5 37.1722 4.51899 37.7539 4.55138C37.1722 4.51899 36.5884 4.5 36 4.5Z" fill="#18A0FB"/>
<path d="M51.6375 8.67262C52.0605 8.91562 52.4768 9.16762 52.8874 9.42975C52.4768 9.16762 52.0594 8.91562 51.6375 8.67262Z" fill="#18A0FB"/>
<path d="M53.0888 9.5625C53.5275 9.84713 53.9595 10.143 54.3837 10.4479C53.9595 10.1396 53.5275 9.84488 53.0888 9.5625Z" fill="#18A0FB"/>
<path d="M36 4.5C35.3396 4.5 34.686 4.52681 34.0358 4.56701C34.686 4.52681 35.3396 4.5 36 4.5Z" fill="#18A0FB"/>
<path d="M50.0816 7.83563C50.5271 8.06063 50.967 8.29463 51.4001 8.53763C50.967 8.29351 50.5283 8.05951 50.0816 7.83563Z" fill="#18A0FB"/>
<path d="M40.1187 4.77788C40.4832 4.82625 40.8477 4.878 41.2088 4.93875C40.8477 4.878 40.4832 4.82625 40.1187 4.77788Z" fill="#18A0FB"/>
<path d="M45.1237 5.85001C45.6334 6.00413 46.1374 6.17176 46.6358 6.35063C46.1374 6.17176 45.6334 6.00526 45.1237 5.85001Z" fill="#18A0FB"/>
<path d="M38.304 4.5927C38.7011 4.62174 39.0915 4.65301 39.4886 4.69657C39.096 4.65301 38.7 4.62174 38.304 4.5927Z" fill="#18A0FB"/>
<path d="M41.8365 5.05125C42.2021 5.11988 42.5644 5.19525 42.9244 5.27625C42.5644 5.19525 42.2021 5.11988 41.8365 5.05125Z" fill="#18A0FB"/>
<path d="M43.5015 5.41013C43.8952 5.50688 44.289 5.61263 44.6715 5.724C44.2834 5.61263 43.8941 5.50575 43.5015 5.41013Z" fill="#18A0FB"/>
</svg>
