<svg width="107" height="20" viewBox="0 0 107 20" fill="none" xmlns="http://www.w3.org/2000/svg">
<path d="M36.176 4.8C37.168 4.8 38.0267 4.96533 38.752 5.296C39.488 5.62667 40.0533 6.096 40.448 6.704C40.8427 7.312 41.04 8.032 41.04 8.864C41.04 9.68533 40.8427 10.4053 40.448 11.024C40.0533 11.632 39.488 12.1013 38.752 12.432C38.0267 12.752 37.168 12.912 36.176 12.912H33.92V16H31.328V4.8H36.176ZM36.032 10.8C36.8107 10.8 37.4027 10.6347 37.808 10.304C38.2133 9.96267 38.416 9.48267 38.416 8.864C38.416 8.23467 38.2133 7.75467 37.808 7.424C37.4027 7.08267 36.8107 6.912 36.032 6.912H33.92V10.8H36.032ZM42.8905 4.8H45.4825V13.888H51.0985V16H42.8905V4.8ZM57.3821 16.192C55.7821 16.192 54.5341 15.7493 53.6381 14.864C52.7528 13.9787 52.3101 12.7147 52.3101 11.072V4.8H54.9021V10.976C54.9021 12.9813 55.7341 13.984 57.3981 13.984C58.2088 13.984 58.8275 13.744 59.2541 13.264C59.6808 12.7733 59.8941 12.0107 59.8941 10.976V4.8H62.4541V11.072C62.4541 12.7147 62.0061 13.9787 61.1101 14.864C60.2248 15.7493 58.9821 16.192 57.3821 16.192ZM73.2395 10.176C73.8795 10.3787 74.3808 10.72 74.7435 11.2C75.1062 11.6693 75.2875 12.2507 75.2875 12.944C75.2875 13.9253 74.9035 14.6827 74.1355 15.216C73.3782 15.7387 72.2688 16 70.8075 16H65.0155V4.8H70.4875C71.8528 4.8 72.8982 5.06133 73.6235 5.584C74.3595 6.10667 74.7275 6.816 74.7275 7.712C74.7275 8.256 74.5942 8.74133 74.3275 9.168C74.0715 9.59467 73.7088 9.93067 73.2395 10.176ZM67.5915 6.752V9.392H70.1675C70.8075 9.392 71.2928 9.28 71.6235 9.056C71.9542 8.832 72.1195 8.50133 72.1195 8.064C72.1195 7.62667 71.9542 7.30133 71.6235 7.088C71.2928 6.864 70.8075 6.752 70.1675 6.752H67.5915ZM70.6155 14.048C71.2982 14.048 71.8102 13.936 72.1515 13.712C72.5035 13.488 72.6795 13.1413 72.6795 12.672C72.6795 11.744 71.9915 11.28 70.6155 11.28H67.5915V14.048H70.6155ZM87.4419 16L87.4259 9.28L84.1299 14.816H82.9619L79.6819 9.424V16H77.2499V4.8H79.3939L83.5859 11.76L87.7139 4.8H89.8419L89.8739 16H87.4419ZM92.5311 4.8H95.1231V16H92.5311V4.8ZM100.101 6.912H96.5171V4.8H106.277V6.912H102.693V16H100.101V6.912Z" fill="#18A0FB"/>
<g clip-path="url(#clip0)">
<path d="M15 8.75V6.25L13.5 5.75C13.375 5.375 13.25 4.875 13 4.5L13.75 3L11.875 1.375L10.5 2C10.125 1.75 9.75 1.625 9.25 1.5L8.75 0H6.25L5.75 1.5C5.375 1.625 4.875 1.75 4.5 2L3.125 1.375L1.375 3.125L2.125 4.625C1.875 5 1.75 5.375 1.625 5.875L0 6.25V8.75L1.5 9.25C1.625 9.625 1.75 10.125 2 10.5L1.375 11.875L3.125 13.625L4.625 12.875C5 13.125 5.375 13.25 5.875 13.375L6.25 15H8.75L9.25 13.5C9.625 13.375 10.125 13.25 10.5 13L12 13.75L13.75 12L13 10.5C13.25 10.125 13.375 9.75 13.5 9.25L15 8.75ZM3.75 7.5C3.75 5.375 5.375 3.75 7.5 3.75C9.625 3.75 11.25 5.375 11.25 7.5C11.25 9.625 9.625 11.25 7.5 11.25C5.375 11.25 3.75 9.625 3.75 7.5Z" fill="#18A0FB"/>
<path d="M9.375 7.5C9.375 8.535 8.535 9.375 7.5 9.375C6.465 9.375 5.625 8.535 5.625 7.5C5.625 6.465 6.465 5.625 7.5 5.625C8.535 5.625 9.375 6.465 9.375 7.5Z" fill="#18A0FB"/>
<path d="M20 3.75V2.5H19.25C19.25 2.25 19.125 2 19 1.875L19.5 1.375L18.625 0.5L18.125 1C17.875 0.875 17.75 0.75 17.5 0.75V0H16.25V0.75C16 0.75 15.75 0.875 15.625 1L15.125 0.5L14.25 1.375L14.75 1.875C14.625 2.125 14.5 2.25 14.5 2.5H13.75V3.75H14.5C14.5 4 14.625 4.25 14.75 4.375L14.25 4.875L15.125 5.75L15.625 5.25C15.875 5.375 16 5.5 16.25 5.5V6.25H17.5V5.5C17.75 5.5 18 5.375 18.125 5.25L18.625 5.75L19.5 4.875L19 4.375C19.125 4.125 19.25 4 19.25 3.75H20ZM16.875 4.375C16.125 4.375 15.625 3.875 15.625 3.125C15.625 2.375 16.125 1.875 16.875 1.875C17.625 1.875 18.125 2.375 18.125 3.125C18.125 3.875 17.625 4.375 16.875 4.375Z" fill="#18A0FB"/>
<path d="M19.25 14.75C19.125 14.375 19 14 18.75 13.625L19.125 12.875L18.25 12L17.625 12.5C17.25 12.25 16.875 12.125 16.5 12L16.25 11.25H15L14.75 12C14.375 12.125 14 12.25 13.625 12.5L12.875 12.125L12 13L12.375 13.75C12.125 14.125 12 14.5 11.875 14.875L11.25 15V16.25L12 16.5C12.125 16.875 12.25 17.25 12.5 17.625L12.125 18.375L13 19.25L13.75 18.875C14.125 19.125 14.5 19.25 14.875 19.375L15 20H16.25L16.5 19.25C16.875 19.125 17.25 19 17.625 18.75L18.375 19.125L19.25 18.25L18.75 17.625C19 17.25 19.125 16.875 19.25 16.5L20 16.25V15L19.25 14.75ZM15.625 17.5C14.625 17.5 13.75 16.625 13.75 15.625C13.75 14.625 14.625 13.75 15.625 13.75C16.625 13.75 17.5 14.625 17.5 15.625C17.5 16.625 16.625 17.5 15.625 17.5Z" fill="#18A0FB"/>
</g>
<defs>
<clipPath id="clip0">
<rect width="20" height="20" fill="white"/>
</clipPath>
</defs>
</svg>
